<svg width="112" height="46" viewBox="0 0 112 46" fill="none" xmlns="http://www.w3.org/2000/svg">
<path d="M80.52 25.44C80.1467 25.44 79.7067 25.5333 79.2 25.72C78.7067 25.9067 78.1067 26.2867 77.4 26.86V34H75.76V24.1H77.32V25.48C78.0267 24.88 78.6667 24.4667 79.24 24.24C79.8267 24.0133 80.3867 23.9 80.92 23.9C81.84 23.9 82.54 24.1933 83.02 24.78C83.5133 25.3533 83.76 26.1733 83.76 27.24V34H82.12V27.48C82.12 26.12 81.5867 25.44 80.52 25.44ZM95.0258 28.44V29.64C95.0258 31.0533 94.6591 32.1667 93.9258 32.98C93.2058 33.7933 92.1724 34.2 90.8258 34.2C89.4924 34.2 88.4591 33.7933 87.7258 32.98C86.9924 32.1667 86.6258 31.0533 86.6258 29.64V28.44C86.6258 27.0533 86.9858 25.9533 87.7058 25.14C88.4391 24.3133 89.4791 23.9 90.8258 23.9C92.1724 23.9 93.2058 24.3133 93.9258 25.14C94.6591 25.9533 95.0258 27.0533 95.0258 28.44ZM93.3258 28.44C93.3258 27.4933 93.1124 26.7533 92.6858 26.22C92.2591 25.6733 91.6391 25.4 90.8258 25.4C90.0258 25.4 89.4058 25.6733 88.9658 26.22C88.5391 26.7533 88.3258 27.4933 88.3258 28.44V29.64C88.3258 30.6267 88.5391 31.3867 88.9658 31.92C89.4058 32.4533 90.0258 32.72 90.8258 32.72C91.6391 32.72 92.2591 32.4533 92.6858 31.92C93.1124 31.3867 93.3258 30.6267 93.3258 29.64V28.44ZM109.868 24.1L107.328 34H105.428L103.348 25.88L101.208 34H99.308L96.788 24.1H98.468L99.468 28.24L100.368 32.34L102.508 24.1H104.248L106.388 32.38L107.268 28.26L108.248 24.1H109.868Z" fill="#5E7BE0"/>
<path d="M23.14 35C22.7133 36.2 22.1867 37.0733 21.56 37.62C20.9467 38.18 20.0867 38.46 18.98 38.46V36.84C19.4333 36.8267 19.82 36.7667 20.14 36.66C20.4733 36.5533 20.7667 36.3333 21.02 36C21.2867 35.68 21.54 35.2 21.78 34.56L21.98 34.06L18.42 24.1H20.1L21.76 28.92L22.78 32L23.76 28.92L25.38 24.1H27L23.14 35ZM33.9536 25.44C33.5803 25.44 33.1403 25.5333 32.6336 25.72C32.1403 25.9067 31.5403 26.2867 30.8336 26.86V34H29.1936V24.1H30.7536V25.48C31.4603 24.88 32.1003 24.4667 32.6736 24.24C33.2603 24.0133 33.8203 23.9 34.3536 23.9C35.2736 23.9 35.9736 24.1933 36.4536 24.78C36.9469 25.3533 37.1936 26.1733 37.1936 27.24V34H35.5536V27.48C35.5536 26.12 35.0203 25.44 33.9536 25.44ZM41.7794 28.46V29.64C41.7794 30.6533 41.966 31.42 42.3394 31.94C42.7127 32.4467 43.306 32.7 44.1194 32.7C44.9194 32.7 45.7794 32.4933 46.6994 32.08L47.1994 33.46C46.106 33.9533 45.046 34.2 44.0194 34.2C42.7394 34.2 41.766 33.7933 41.0994 32.98C40.4327 32.1667 40.0994 31.0533 40.0994 29.64V28.46C40.0994 27.0467 40.4327 25.9333 41.0994 25.12C41.766 24.3067 42.7394 23.9 44.0194 23.9C44.4994 23.9 44.9927 23.9667 45.4994 24.1C46.0194 24.22 46.5394 24.3933 47.0594 24.62L46.5594 26.02C46.1194 25.8333 45.6927 25.6867 45.2794 25.58C44.8794 25.4733 44.4927 25.42 44.1194 25.42C43.306 25.42 42.7127 25.68 42.3394 26.2C41.966 26.7067 41.7794 27.46 41.7794 28.46Z" fill="#570A73"/>
<path d="M1.08 45.456C0.92 45.456 0.84 45.328 0.84 45.072C0.84 44.848 0.92 44.576 1.08 44.256C1.24 43.936 1.448 43.68 1.704 43.488C1.96 43.328 2.232 43.152 2.52 42.96C2.776 42.8 3.032 42.656 3.288 42.528C3.256 42.464 3.24 42.352 3.24 42.192C3.24 41.936 3.32 41.808 3.48 41.808C3.576 41.808 3.72 41.92 3.912 42.144C6.408 40.768 8.84 39.76 11.208 39.12V38.976C11.208 38.08 10.968 37.248 10.488 36.48C10.04 35.712 9.464 34.928 8.76 34.128C8.056 33.328 7.336 32.448 6.6 31.488C5.896 30.528 5.256 29.44 4.68 28.224C4.136 26.976 3.784 25.52 3.624 23.856C3.592 23.664 3.576 23.472 3.576 23.28C3.576 23.088 3.576 22.896 3.576 22.704C3.576 20.656 4.04 18.8 4.968 17.136C5.896 15.472 7.096 14.048 8.568 12.864C10.072 11.648 11.688 10.704 13.416 10.032C14.792 9.488 16.36 9.216 18.12 9.216C18.76 9.216 19.368 9.264 19.944 9.36C21.64 9.68 22.824 10.24 23.496 11.04C24.168 11.84 24.504 12.64 24.504 13.44C24.504 14.048 24.344 14.592 24.024 15.072C23.704 15.552 23.48 15.792 23.352 15.792C23.256 15.792 23.208 15.728 23.208 15.6C23.208 15.536 23.224 15.44 23.256 15.312C23.32 15.152 23.368 14.992 23.4 14.832C23.496 14.576 23.56 14.352 23.592 14.16C23.624 13.968 23.64 13.776 23.64 13.584C23.64 12.56 23.16 11.808 22.2 11.328C21.272 10.816 20.28 10.56 19.224 10.56C19.096 10.56 18.952 10.56 18.792 10.56C18.632 10.56 18.472 10.576 18.312 10.608C16.296 10.896 14.392 11.632 12.6 12.816C10.808 14 9.288 15.552 8.04 17.472C6.824 19.36 6.024 21.536 5.64 24C5.608 24.224 5.576 24.448 5.544 24.672C5.544 24.896 5.544 25.104 5.544 25.296C5.544 26.8 5.864 28.176 6.504 29.424C7.144 30.64 7.896 31.776 8.76 32.832C9.656 33.888 10.504 34.912 11.304 35.904C12.104 36.864 12.648 37.824 12.936 38.784C13.576 38.656 14.2 38.576 14.808 38.544C15.416 38.512 16.008 38.512 16.584 38.544C17.032 38.608 17.256 38.736 17.256 38.928C17.256 39.12 16.936 39.216 16.296 39.216C15.848 39.216 15.352 39.248 14.808 39.312C14.264 39.344 13.688 39.44 13.08 39.6C13.112 39.696 13.128 39.792 13.128 39.888C13.128 39.984 13.128 40.064 13.128 40.128C13.128 40.448 13.08 40.784 12.984 41.136C12.568 42.416 11.816 43.36 10.728 43.968C9.64 44.576 8.536 44.88 7.416 44.88C6.328 44.88 5.416 44.656 4.68 44.208C4.424 44.08 4.184 43.904 3.96 43.68C3.544 43.904 3.128 44.16 2.712 44.448C2.264 44.736 1.832 45.024 1.416 45.312C1.288 45.408 1.176 45.456 1.08 45.456ZM6.984 44.016C7.912 44.016 8.824 43.712 9.72 43.104C10.616 42.528 11.112 41.552 11.208 40.176C9.096 40.912 6.92 41.936 4.68 43.248C5.192 43.76 5.96 44.016 6.984 44.016Z" fill="#5E7BE0"/>
<path d="M47.288 43.008C47.16 43.008 47.064 42.976 47 42.912C46.904 42.848 46.888 42.8 46.952 42.768C47.688 42.192 48.296 41.616 48.776 41.04C49.288 40.464 49.8 39.728 50.312 38.832L50.984 37.68C51.624 36.592 52.344 35.344 53.144 33.936C53.944 32.528 54.744 31.104 55.544 29.664C56.376 28.224 57.128 26.896 57.8 25.68C58.504 24.464 59.064 23.488 59.48 22.752C59.896 21.984 60.104 21.6 60.104 21.6C60.968 20.096 61.912 18.96 62.936 18.192C63.992 17.392 64.92 16.88 65.72 16.656C63.384 16.688 61.304 16.864 59.48 17.184C57.656 17.504 56.424 18.256 55.784 19.44C55.656 19.664 55.56 19.92 55.496 20.208C55.464 20.464 55.448 20.72 55.448 20.976C55.448 21.808 55.672 22.4 56.12 22.752C56.152 22.784 56.168 22.816 56.168 22.848C56.168 22.912 56.104 22.976 55.976 23.04C55.88 23.104 55.784 23.12 55.688 23.088C55.4 22.928 55.048 22.544 54.632 21.936C54.216 21.296 53.96 20.768 53.864 20.352C53.768 19.968 53.72 19.616 53.72 19.296C53.72 18.432 54.024 17.76 54.632 17.28C55.24 16.8 55.976 16.464 56.84 16.272C57.736 16.08 58.648 15.968 59.576 15.936C60.504 15.904 61.272 15.888 61.88 15.888H63.8C64.44 15.888 65.128 15.888 65.864 15.888C66.632 15.856 67.272 15.792 67.784 15.696H67.976C68.168 15.696 68.312 15.76 68.408 15.888C68.504 16.016 68.552 16.144 68.552 16.272C68.552 16.528 68.44 16.656 68.216 16.656C68.088 16.656 67.976 16.656 67.88 16.656C67.816 16.624 67.72 16.608 67.592 16.608C66.12 16.608 64.648 17.888 63.176 20.448C63.176 20.448 63 20.736 62.648 21.312C62.328 21.856 61.912 22.56 61.4 23.424C60.92 24.288 60.408 25.2 59.864 26.16C59.32 27.12 58.84 27.984 58.424 28.752C57.56 30.352 56.632 32.096 55.64 33.984C54.68 35.84 53.688 37.776 52.664 39.792C52.44 40.176 52.248 40.624 52.088 41.136C51.928 41.616 51.688 41.856 51.368 41.856C51.24 41.856 51.08 41.84 50.888 41.808C50.696 41.776 50.488 41.76 50.264 41.76C49.72 41.76 49.224 41.856 48.776 42.048C48.36 42.24 47.928 42.544 47.48 42.96C47.448 42.992 47.384 43.008 47.288 43.008ZM68.216 42.528C67.416 42.528 66.6 42.272 65.768 41.76C64.936 41.216 64.088 40.384 63.224 39.264C62.2 37.888 61.336 36.56 60.632 35.28C59.928 33.968 59.352 32.832 58.904 31.872C58.488 30.912 58.168 30.224 57.944 29.808C59.736 28.144 61.576 26.656 63.464 25.344C65.384 24.032 67.288 22.784 69.176 21.6C70.456 20.832 71.832 19.984 73.304 19.056C74.776 18.096 76.264 17.296 77.768 16.656C78.824 16.208 79.848 15.984 80.84 15.984C81.288 15.984 81.736 16.032 82.184 16.128C82.632 16.192 83.064 16.304 83.48 16.464C83.8 16.56 84.168 16.768 84.584 17.088C85 17.376 85.176 17.712 85.112 18.096C85.112 18.224 85.048 18.288 84.92 18.288C84.76 18.288 84.616 18.192 84.488 18C84.36 17.808 84.168 17.616 83.912 17.424C83.656 17.232 83.256 17.136 82.712 17.136C82.008 17.136 81.224 17.28 80.36 17.568C79.528 17.856 78.792 18.128 78.152 18.384C76.872 18.928 75.528 19.52 74.12 20.16C72.712 20.8 71.384 21.472 70.136 22.176C69.016 22.784 67.832 23.488 66.584 24.288C65.336 25.088 64.12 25.904 62.936 26.736C61.784 27.536 60.744 28.272 59.816 28.944C60.008 29.424 60.328 30.144 60.776 31.104C61.224 32.064 61.816 33.152 62.552 34.368C63.288 35.552 64.152 36.752 65.144 37.968C65.88 38.864 66.6 39.52 67.304 39.936C68.04 40.32 68.728 40.512 69.368 40.512C70.232 40.512 71.032 40.272 71.768 39.792C72.536 39.28 73.256 38.64 73.928 37.872C74.632 37.104 75.288 36.32 75.896 35.52C76.056 35.328 76.168 35.232 76.232 35.232C76.36 35.232 76.424 35.312 76.424 35.472C76.424 35.664 76.344 35.856 76.184 36.048C74.776 38 73.416 39.568 72.104 40.752C70.824 41.936 69.528 42.528 68.216 42.528Z" fill="#570A73"/>
</svg>
